<mxfile host="app.diagrams.net" modified="2023-12-06T03:53:41.603Z" agent="Mozilla/5.0 (Macintosh; Intel Mac OS X 10_15_7) AppleWebKit/537.36 (KHTML, like Gecko) Chrome/119.0.0.0 Safari/537.36" etag="nxU4LvboalrmuRoNslEx" version="22.1.5" type="github">
  <diagram name="第 1 页" id="RFqubxHH86JAbSpuru27">
    <mxGraphModel dx="1434" dy="786" grid="0" gridSize="10" guides="1" tooltips="1" connect="1" arrows="1" fold="1" page="1" pageScale="1" pageWidth="1654" pageHeight="2336" math="0" shadow="0">
      <root>
        <mxCell id="0" />
        <mxCell id="1" parent="0" />
        <mxCell id="AkYm-pmbZ86CwhPPTDKQ-4" style="edgeStyle=orthogonalEdgeStyle;rounded=0;orthogonalLoop=1;jettySize=auto;html=1;exitX=0.5;exitY=0;exitDx=0;exitDy=0;entryX=0.5;entryY=1;entryDx=0;entryDy=0;" edge="1" parent="1" source="AkYm-pmbZ86CwhPPTDKQ-1" target="AkYm-pmbZ86CwhPPTDKQ-3">
          <mxGeometry relative="1" as="geometry" />
        </mxCell>
        <mxCell id="AkYm-pmbZ86CwhPPTDKQ-5" value="&lt;font style=&quot;font-size: 12px;&quot;&gt;get apps tpls&lt;/font&gt;" style="edgeLabel;html=1;align=center;verticalAlign=middle;resizable=0;points=[];" vertex="1" connectable="0" parent="AkYm-pmbZ86CwhPPTDKQ-4">
          <mxGeometry x="-0.0049" relative="1" as="geometry">
            <mxPoint as="offset" />
          </mxGeometry>
        </mxCell>
        <mxCell id="AkYm-pmbZ86CwhPPTDKQ-1" value="app-center&lt;br&gt;Studio 应用管理" style="rounded=0;whiteSpace=wrap;html=1;" vertex="1" parent="1">
          <mxGeometry x="498" y="252" width="120" height="60" as="geometry" />
        </mxCell>
        <mxCell id="AkYm-pmbZ86CwhPPTDKQ-3" value="app-wizard&lt;br&gt;应用模版文件&lt;br&gt;&lt;br&gt;Module Templates&lt;br&gt;&lt;br&gt;GDBT Predictor&lt;br&gt;simple-tensorflow serving&lt;br&gt;......" style="rounded=0;whiteSpace=wrap;html=1;" vertex="1" parent="1">
          <mxGeometry x="227" y="83" width="169" height="123" as="geometry" />
        </mxCell>
        <mxCell id="AkYm-pmbZ86CwhPPTDKQ-7" value="" style="rounded=0;whiteSpace=wrap;html=1;" vertex="1" parent="1">
          <mxGeometry x="304" y="458" width="120" height="60" as="geometry" />
        </mxCell>
      </root>
    </mxGraphModel>
  </diagram>
</mxfile>
